<svg width="13" height="16" viewBox="0 0 13 16" fill="none" xmlns="http://www.w3.org/2000/svg">
<path d="M11.071 5.33333H10.3091V3.80952C10.3091 1.70667 8.60239 0 6.49954 0C4.39668 0 2.69001 1.70667 2.69001 3.80952V5.33333H1.92811C1.09001 5.33333 0.404297 6.01905 0.404297 6.85714V14.4762C0.404297 15.3143 1.09001 16 1.92811 16H11.071C11.9091 16 12.5948 15.3143 12.5948 14.4762V6.85714C12.5948 6.01905 11.9091 5.33333 11.071 5.33333ZM6.49954 12.1905C5.66144 12.1905 4.97573 11.5048 4.97573 10.6667C4.97573 9.82857 5.66144 9.14286 6.49954 9.14286C7.33763 9.14286 8.02334 9.82857 8.02334 10.6667C8.02334 11.5048 7.33763 12.1905 6.49954 12.1905ZM4.21382 5.33333V3.80952C4.21382 2.54476 5.23477 1.52381 6.49954 1.52381C7.7643 1.52381 8.78525 2.54476 8.78525 3.80952V5.33333H4.21382Z" fill="#03749C"/>
</svg>
